<svg class="svg-icon" style="width: 1em; height: 1em;vertical-align: middle;fill: currentColor;overflow: hidden;" viewBox="0 0 1024 1024" version="1.1" xmlns="http://www.w3.org/2000/svg"><path d="M839.36 582.485333L593.706667 827.306667c-91.904 91.584-240.917333 91.584-332.842667 0a233.664 233.664 0 0 1 0.021333-331.306667l327.552-326.4c55.637333-55.466667 146.176-55.424 201.813334 0a141.44 141.44 0 0 1 0.106666 200.597333L462.741333 696.661333a50.346667 50.346667 0 0 1-70.869333 0.064 49.429333 49.429333 0 0 1 0.106667-70.229333l245.568-244.714667a42.666667 42.666667 0 0 0-60.224-60.458666L331.733333 566.058667a134.741333 134.741333 0 0 0-0.085333 191.125333 135.68 135.68 0 0 0 191.317333-0.085333l327.637334-326.485334c89.024-88.746667 88.96-232.682667-0.128-321.472C761.557333 20.544 617.173333 20.48 528.213333 109.141333l-327.573333 326.4c-125.290667 124.842667-125.290667 327.338667-0.021333 452.181334 125.226667 124.8 328.106667 124.778667 453.312 0l245.674666-244.821334a42.666667 42.666667 0 1 0-60.245333-60.437333z"  fill="#e28b58"/></svg>